<svg width="300" height="301" viewBox="0 0 300 301" fill="none" xmlns="http://www.w3.org/2000/svg">
<rect width="300" height="300" fill="#BE3144"/>
<path d="M71.38 242.17L106.74 228.655V237.325L79.71 247.185V247.865L106.74 257.725V266.395L71.38 252.88V242.17ZM120.973 290.45H114.938V282.12H123.183C126.923 282.12 128.453 281.1 129.728 278.21L130.748 276L109.923 233.755H120.208L131.003 256.195L135.168 266.31H135.848L139.843 256.11L149.788 233.755H159.903L137.888 280.59C134.403 288.155 129.643 290.45 120.973 290.45ZM190.743 276.85C171.278 276.85 163.033 268.01 163.033 247.27C163.033 228.91 172.723 218.2 190.063 218.2C204.258 218.2 214.033 225.255 214.033 236.815V237.495H203.918V236.815C203.918 230.78 200.178 226.87 190.063 226.87C177.483 226.87 172.808 232.565 172.808 246.08V250.585H173.573C175.613 245.06 182.668 240.725 193.463 240.725C207.488 240.725 215.478 247.1 215.478 258.405C215.478 269.625 206.638 276.85 190.743 276.85ZM190.233 268.095C201.538 268.095 205.958 264.695 205.958 257.725C205.958 250.67 201.623 247.27 190.318 247.27C179.183 247.27 173.913 250.925 173.913 257.385C173.913 264.525 179.013 268.095 190.233 268.095ZM226.738 277.7H216.963L247.563 217.35H257.338L226.738 277.7ZM293.605 252.88L258.245 266.395V257.725L285.275 247.865V247.185L258.245 237.325V228.655L293.605 242.17V252.88Z" fill="url(#paint0_linear_170_5)"/>
<path fill-rule="evenodd" clip-rule="evenodd" d="M169.665 167.309C193.358 152.04 204.13 123.606 208.469 107.861C210.217 101.517 206.248 95.357 199.748 94.3283C183.617 91.7753 153.272 89.8376 129.58 105.106C105.887 120.374 95.115 148.809 90.7753 164.554C89.0268 170.898 92.9965 177.058 99.496 178.086C115.627 180.639 145.972 182.577 169.665 167.309ZM163.605 157.906C175.573 150.194 179.013 134.227 171.29 122.243C163.568 110.26 147.606 106.797 135.639 114.509C123.672 122.221 120.231 138.187 127.954 150.171C135.677 162.155 151.638 165.618 163.605 157.906Z" fill="url(#paint1_linear_170_5)"/>
<defs>
<linearGradient id="paint0_linear_170_5" x1="183" y1="196" x2="183" y2="301" gradientUnits="userSpaceOnUse">
<stop offset="1" stop-color="#E9E2E2"/>
</linearGradient>
<linearGradient id="paint1_linear_170_5" x1="169.101" y1="93.7224" x2="175.362" y2="167.656" gradientUnits="userSpaceOnUse">
<stop offset="1" stop-color="#E9E2E2"/>
</linearGradient>
</defs>
</svg>
