<svg xmlns="http://www.w3.org/2000/svg" version="1.1" xmlns:xlink="http://www.w3.org/1999/xlink" xmlns:svgjs="http://svgjs.dev/svgjs" viewBox="0 0 800 800"><defs><linearGradient x1="50%" y1="0%" x2="50%" y2="100%" id="wwwhirl-grad"><stop stop-color="hsl(206, 75%, 49%)" stop-opacity="1" offset="45%"></stop><stop stop-color="hsl(331, 90%, 56%)" stop-opacity="1" offset="100%"></stop></linearGradient></defs><g stroke-width="2" stroke="#b0b0b0" fill="none" stroke-linecap="round"><path d="M37.00000251770027 433.83049640559335C50.75000289917 419.3929960050501 75.50000358581553 368.03674458026063 103.000004348755 364.5304944829859C130.50000511169446 361.0242443857111 141.5000054168703 423.39424611605784 169.00000617980973 417.00049593867436C196.5000069427492 410.60674576129094 207.50000724792503 327.44674345416195 235.00000801086446 333.8404936315454C262.500008773804 340.23424380892885 273.5000090789798 436.7592464868464 301.0000098419193 447.6904967901148C328.50001060485874 458.6217470933833 339.5000109100345 384.45424503573554 367.000011672974 386.3104950872339C394.50001243591345 388.1667451387323 405.5000127410893 458.4567470888056 433.0000135040287 456.60049703730726C460.5000142669682 454.74424698580884 471.50001457214404 375.33799478282106 499.0000153350834 377.4004948400415C526.5000160980228 379.462994897262 537.5000164031987 465.46924728335523 565.0000171661382 466.50049731196543C592.5000179290777 467.5317473405757 603.5000182342535 382.76299498881474 631.000018997193 382.35049497737066C658.5000197601325 381.9379949659266 669.5000200653083 468.2329973600306 697.0000208282477 464.5204972570338C724.5000215911871 460.80799715403697 749.2500222778326 385.36174506091254 763.0000226593024 364.5304944829859 " transform="rotate(99, 400, 400)"></path><path d="M48.00000244140632 432.80533747724263C61.33333614464971 418.80533708883706 85.3333368104878 369.005335707223 112.00000421697456 365.605335612896C138.6666716234613 362.2053355185689 149.33333858605602 422.6853371964809 176.00000599254278 416.4853370244727C202.66667339902952 410.2853368524645 213.33334036162427 329.64533461524854 240.000007768111 335.8453347872568C266.6666751745978 342.0453349592649 277.3333421371925 435.64533755603344 304.00000954367925 446.2453378501119C330.66667695016605 456.84533814419046 341.3333439127607 384.92533614889567 368.00001131924745 386.7253361988335C394.66667872573424 388.52533624877134 405.33334568832896 456.68533813975154 432.00001309481576 454.8853380898137C458.66668050130244 453.0853380398758 469.3333474638972 376.0853359036453 496.0000148703839 378.0853359591318C522.6666822768707 380.0853360146183 533.3333492394653 463.48533832840565 560.0000166459522 464.4853383561489C586.666684052439 465.48533838389216 597.3333510150337 383.2853361033967 624.0000184215204 382.8853360922994C650.6666858280073 382.4853360812021 661.3333527906019 466.1653384027576 688.0000201970887 462.56533830288186C714.6666876035754 458.9653382030061 738.6666882694134 385.8053361733097 752.0000219726569 365.605335612896 " transform="rotate(96, 400, 400)"></path><path d="M59.00000236511238 431.7801671048001C71.9166693901294 418.2176667285322 95.16667003516005 369.9739153900936 121.00000408519412 366.6801652987143C146.83333813522813 363.38641520733495 157.1666717552418 421.9764168328122 183.0000058052758 415.97016666617924C208.83333985530987 409.9639164995464 219.1666734753235 331.84391433224334 245.00000752535757 337.85016449887627C270.8333415753916 343.8564146655092 281.1666751954052 434.53141718112875 307.0000092454393 444.8001674660173C332.83334329547336 455.0689177509058 343.16667691548696 385.39641581796394 369.00001096552097 387.14016586634125C394.83334501555504 388.88391591471856 405.1666786355687 454.9139177466056 431.0000126856027 453.1701676982283C456.8333467356368 451.42641764985103 467.16668035565044 376.8326655803777 493.0000144056845 378.7701656341302C518.8333484557185 380.7076656878828 529.1666820757321 461.50141792936427 555.0000161257661 462.4701679562406C580.8333501758003 463.4389179831168 591.1666837958139 383.80766577388687 617.000017845848 383.42016576313637C642.8333518958821 383.03266575238587 653.1666855158957 464.0976680013927 679.0000195659296 460.6101679046381C704.8333536159636 457.12266780788354 728.0833542609943 386.2489158416151 741.0000212860114 366.6801652987143 " transform="rotate(93, 400, 400)"></path><path d="M70.00000228881842 430.7550043617521C82.50000263560909 417.6300039976219 105.00000325983231 370.94250270235875 130.00000395341365 367.75500261392716C155.00000464699497 364.5675025254955 165.00000492442751 421.267504098538 190.00000561800886 415.45500393728037C215.0000063115902 409.64250377602264 225.00000658902275 334.0425016786327 250.00000728260406 339.85500183989035C275.00000797618543 345.667502001148 285.000008253618 433.4175044356185 310.0000089471993 443.3550047113171C335.00000964078066 453.2925049870157 345.00000991821315 385.8675031164268 370.0000106117945 387.55500316324355C395.00001130537584 389.2425032100603 405.0000115828084 453.14250498285423 430.0000122763897 451.4550049360375C455.000012969971 449.76750488922073 465.0000132474036 377.5800028865046 490.00001394098496 379.4550029385232C515.0000146345662 381.3300029905418 525.0000149119987 459.5175051597174 550.0000156055801 460.45500518572675C575.0000162991615 461.3925052117361 585.000016576594 384.33000307377154 610.0000172701755 383.9550030633678C635.0000179637568 383.5800030529641 645.0000182411893 462.0300052294224 670.0000189347705 458.6550051357889C695.0000196283519 455.2800050421554 717.5000202525752 386.692503139315 730.0000205993658 367.75500261392716 " transform="rotate(90, 400, 400)"></path><path d="M81.00000221252448 429.72984161870414C93.08333588108879 417.0423412667116 114.83333648450457 371.9110900146239 139.0000038216332 368.82983992914C163.1666711587618 365.7485898436561 172.83333809361326 420.5585913642638 197.0000054307419 414.9398412083814C221.16667276787052 409.321091052499 230.833339702722 336.241089025022 255.00000703985063 341.85983918090443C279.16667437697924 347.47858933678685 288.83334131183074 432.3035916901083 313.00000864895935 441.90984195661696C337.16667598608797 451.5160922231256 346.8333429209394 386.33859041488967 371.000010258068 387.96984046014586C395.16667759519663 389.60109050540206 404.8333445300481 451.3710922191028 429.00001186717674 449.7398421738466C453.16667920430535 448.10859212859043 462.8333461391569 378.32734019263154 487.00001347628546 380.1398402429162C511.1666808134141 381.9523402932008 520.8333477482655 457.53359239007057 545.0000150853941 458.4398424152129C569.1666824225229 459.3460924403553 578.8333493573742 384.85234037365626 603.000016694503 384.48984036359934C627.1666840316316 384.1273403535424 636.8333509664831 459.96234245745205 661.0000183036116 456.69984236693966C685.1666856407402 453.43734227642733 706.9166862441559 387.1360904370149 719.0000199127203 368.82983992914 " transform="rotate(87, 400, 400)"></path><path d="M92.00000213623053 428.70465980216983C103.6666691265685 416.45465946231496 124.66666970917683 372.8796582534027 148.00000368985275 369.90465817086647C171.33333767052864 366.9296580883303 180.666671262799 419.8496595565033 204.00000524347493 414.4246594059962C227.33333922415085 408.999659255489 236.66667281642125 338.439657297925 260.00000679709717 343.8646574484322C283.33334077777306 349.2896575989393 292.66667437004344 431.18965987111176 316.0000083507193 440.46466012843047C339.3333423313953 449.7396603857492 348.66667592366565 386.8096586398662 372.00000990434154 388.38465868356184C395.3333438850174 389.9596587272574 404.6666774772878 449.5996603818651 428.00001145796375 448.0246603381695C451.3333454386397 446.44966029447386 460.6666790309101 379.0746584252721 484.000013011586 380.8246584738228C507.33334699226185 382.5746585223735 516.6666805845323 455.54966054693745 540.0000145652082 456.4246605712128C563.3333485458841 457.29966059548815 572.6666821381544 385.37465860005466 596.0000161188304 385.0246585903445C619.3333500995063 384.67465858063434 628.6666836917767 457.8946606119954 652.0000176724526 454.7446605246041C675.3333516531285 451.5946604372129 696.3333522357368 387.5796586612285 708.0000192260748 369.90465817086647 " transform="rotate(84, 400, 400)"></path><path d="M103.00000205993659 427.6795008738191C114.25000237204819 415.8670005461019 134.5000029338491 373.8482493803651 157.00000355807228 370.9794993007766C179.50000418229547 368.11074922118814 188.5000044319848 419.1407506369264 211.00000505620795 413.90950049179446C233.50000568043117 408.6782503466626 242.50000593012047 340.6382484590116 265.0000065543437 345.86949860414353C287.5000071785669 351.1007487492754 296.5000074282562 430.07575094029886 319.0000080524794 439.01950118842757C341.5000086767026 447.96325143655633 350.50000892639184 387.2807497530263 373.00000955061506 388.7994997951614C395.5000101748383 390.31824983729643 404.5000104245276 447.82825143281093 427.00001104875076 446.3095013906759C449.500011672974 444.7907513485408 458.5000119226633 379.8219995460963 481.00001254688647 381.5094995929131C503.50001317110963 383.1969996397298 512.5000134207988 453.56575159198786 535.0000140450221 454.40950161539627C557.5000146692455 455.2532516388046 566.5000149189347 385.8969997146366 589.0000155431579 385.55949970527325C611.5000161673811 385.2219996959099 620.5000164170704 455.8270016547223 643.0000170412935 452.7895015704522C665.5000176655168 449.75200148618205 685.7500182273176 388.0232497736257 697.0000185394292 370.9794993007766 " transform="rotate(81, 400, 400)"></path><path d="M114.00000198364263 426.65433050137653C124.83333561752788 415.27933018579705 144.33333615852135 374.8168290632357 166.0000034262918 372.0543289865949C187.6666706940623 369.2918289099542 196.3333376011705 418.4318302732577 218.000004868941 413.39433013350106C239.6666721367115 408.3568299937444 248.3333390438197 342.8368281760064 270.0000063115902 347.874328315763C291.6666735793607 352.9118284555197 300.33334048646896 428.9618305653941 322.0000077542394 437.5743308043329C343.6666750220099 446.1868310432717 352.3333419291181 387.75182942209466 374.0000091968886 389.2143294626692C395.6666764646591 390.67682950324365 404.3333433717673 446.05683103966504 426.0000106395378 444.5943309990905C447.66667790730827 443.13183095851605 456.3333448144165 380.56932922282874 478.00001208218697 382.1943292679115C499.66667934995746 383.8193293129943 508.33334625706556 451.58183119294654 530.0000135248362 452.3943312154879C551.6666807926067 453.20683123802934 560.3333476997147 386.41932938512673 582.0000149674854 386.0943293761102C603.6666822352558 385.76932936709363 612.3333491423641 453.75933125335746 634.0000164101345 450.8343311722084C655.666683677905 447.9093310910594 675.1666842188985 388.46682944193105 686.0000178527837 372.0543289865949 " transform="rotate(78, 400, 400)"></path><path d="M125.00000190734869 425.62916775832855C135.41666886300757 414.6916674548867 154.1666693831936 375.7854163755008 175.00000329451137 373.12916630180774C195.83333720582914 370.47291622811474 204.16667077035626 417.7229175389835 225.00000468167406 412.8791674046021C245.83333859299182 408.0354172702207 254.16667215751897 345.03541552239574 275.00000606883674 349.8791656567771C295.8333399801545 354.7229157911585 304.16667354468166 427.84791781988395 325.0000074559994 436.12916804963277C345.8333413673172 444.4104182793816 354.16667493184434 388.2229167205575 375.00000884316205 389.62916675957143C395.8333427544799 391.0354167985854 404.166676319007 444.2854182759137 425.0000102303248 442.8791682368997C445.83334414164256 441.47291819788575 454.1666777061697 381.31666652895564 475.0000116174875 382.8791665723045C495.83334552880524 384.44166661565333 504.1666790933323 449.5979184232997 525.0000130046501 450.3791684449741C545.8333469159679 451.16041846664854 554.166680480495 386.94166668501146 575.0000143918128 386.6291666763417C595.8333483031306 386.31666666767194 604.1666818676579 451.6916684813871 625.0000157789755 448.87916840335924C645.8333496902933 446.0666683253313 664.5833502104794 388.910416739631 675.0000171661382 373.12916630180774 " transform="rotate(75, 400, 400)"></path><path d="M136.00000183105476 424.6040012005833C146.00000210848728 414.1040009092792 164.00000260786584 376.75399987306866 184.00000316273093 374.2039998023233C204.00000371759597 371.65399973157804 212.000003939542 417.01400099001205 232.00000449440708 412.36400086100593C252.00000504927215 407.71400073199976 260.0000052712182 347.2339990540878 280.0000058260833 351.8839991830939C300.0000063809483 356.53399931210004 308.00000660289436 426.73400125967646 328.00000715775946 434.68400148023534C348.00000771262455 442.6340017007942 356.00000793457053 388.69400020432306 376.0000084894356 390.0440002417765C396.00000904430067 391.3940002792299 404.0000092662467 442.514001697465 424.0000098211118 441.1640016600116C444.0000103759769 439.81400162255824 452.0000105979229 382.0640000203853 472.000011152788 383.5640000620002C492.000011707653 385.06400010361506 500.00001192959905 447.6140018389556 520.0000124844642 448.36400185976305C540.0000130393292 449.11400188057047 548.0000132612753 387.4640001701989 568.0000138161404 387.16400016187595C588.0000143710055 386.8640001535529 596.0000145929514 449.6240018947195 616.0000151478165 446.92400181981276C636.0000157026815 444.224001744906 654.00001620206 389.35400022263366 664.0000164794926 374.2039998023233 " transform="rotate(72, 400, 400)"></path><path d="M146.9999864959717 423.57883082814084C156.5833200951779 413.51633054897434 173.83332057374906 377.72257955593926 192.9999877721614 375.27882948814164C212.16665497057375 372.8350794203441 219.8333218499387 416.30508062634334 238.99998904835104 411.8488305027124C258.1666562467634 407.39258037908155 265.8333231261284 349.4325787710826 284.9999903245407 353.88882889471347C304.1666575229531 358.34507901834434 311.83332440231806 425.6200808847717 330.9999916007304 433.23883109614064C350.1666587991428 440.8575813075096 357.83332567850766 389.1650798733914 376.99999287692003 390.45882990928425C396.1666600753324 391.7525799451771 403.8333269546974 440.74258130431906 422.99999415310975 439.44883126842626C442.1666613515221 438.1550812325334 449.83332823088705 382.81132969711774 468.9999954292994 384.24882973699863C488.16666262771173 385.6863297768796 495.83332950707666 445.6300814399142 514.9999967054891 446.3488314598547C534.1666639039015 447.0675814797952 541.8333307832664 387.98632984068905 560.9999979816788 387.6988298327129C580.1666651800912 387.4113298247367 587.8333320594561 447.55633149335466 606.9999992578685 444.968831421569C626.1666664562807 442.38133134978335 643.4166669348518 389.797579890939 653.000000534058 375.27882948814164 " transform="rotate(69, 400, 400)"></path><path d="M157.99998641967778 422.55366427039553C167.1666533406576 412.92866400336675 183.6666537984213 378.6911630535071 201.99998764038094 376.3536629886572C220.33332148234058 374.01616292380737 227.66665501912445 415.5961640773719 245.9999888610841 411.3336639591163C264.33332270304373 407.0711638408606 271.6666562398276 351.63116230277467 289.99999008178725 355.8936624210303C308.3333239237469 360.1561625392859 315.6666574605308 424.5061643245643 333.99999130249046 431.7936645267432C352.3333251444501 439.0811647289222 359.6666586812339 389.636163357157 377.99999252319355 390.8736633914893C396.3333263651532 392.1111634258216 403.6666599019371 438.97116472587044 421.99999374389677 437.73366469153814C440.3333275858564 436.4961646572059 447.6666611226403 383.55866318854737 465.9999949645999 384.93366322669436C484.3333288065595 386.30866326484136 491.6666623433434 443.64616485557013 509.9999961853031 444.3336648746436C528.3333300272627 445.0211648937171 535.6666635640465 388.5086633258765 553.9999974060063 388.23366331824707C572.3333312479659 387.9586633106177 579.6666647847499 445.48866490668706 597.9999986267094 443.0136648380225C616.3333324686689 440.538664769358 632.8333329264326 390.2411633739417 641.9999998474125 376.3536629886572 " transform="rotate(66, 400, 400)"></path><path d="M168.99998634338385 421.52849008325575C177.7499865861373 412.3409898283646 193.49998702309355 379.6597389216804 210.9999875086005 377.42848885977827C228.4999879941074 375.19723879787614 235.49998818831023 414.8872398990059 252.99998867381714 410.8184897861255C270.49998915932406 406.74973967324513 277.49998935352687 353.8297382050722 294.9999898390338 357.89848831795257C312.4999903245407 361.96723843083294 319.4999905187435 423.39224013496226 336.99999100425043 430.34849032795125C354.49999148975735 437.3047405209403 361.49999168396016 390.10723921152805 378.9999921694671 391.2884892442998C396.49999265497405 392.4697392770715 403.4999928491768 437.1997405180272 420.9999933346837 436.01849048525554C438.4999938201907 434.8372404524838 445.4999940143935 384.3059890505825 462.9999944999004 385.6184890869955C480.4999949854073 386.93098912340855 487.4999951796101 441.6622406418315 504.99999566511707 442.31849066003804C522.4999961506239 442.97474067824453 529.4999963448267 389.0309891816694 546.9999968303338 388.7684891743868C564.4999973158407 388.5059891671042 571.4999975100434 443.420990690625 588.9999979955503 441.0584906250815C606.4999984810572 438.6959905595381 622.2499989180135 390.6847392275498 630.999999160767 377.42848885977827 " transform="rotate(63, 400, 400)"></path><path d="M179.9999862670899 420.503331154905C188.33331983161702 411.75333091215157 203.3333202477658 380.6283300486428 219.99998737682003 378.5033299896884C236.66665450587425 376.37832993073397 243.33332135749595 414.178330979429 259.9999884865502 410.3033308719239C276.6666556156044 406.4283307644188 283.33332246722614 356.0283293661588 299.99998959628033 359.90332947366386C316.6666567253345 363.778329581169 323.3333235769563 422.2783312041493 339.9999907060105 428.90333138794836C356.6666578350647 435.52833157174746 363.3333246866864 390.5783303246882 379.9999918157406 391.70333035589937C396.6666589447948 392.8283303871105 403.33332579641655 435.42833156897314 419.9999929254708 434.30333153776195C436.666660054525 433.17833150655076 443.3333269061467 385.05333017140674 459.9999940352009 386.3033302060858C476.6666611642551 387.55333024076486 483.33332801587676 439.67833168688196 499.99999514493106 440.3033317042215C516.6666622739854 440.928331721561 523.333329125607 389.5533302962514 539.9999962546613 389.30333028931557C556.6666633837156 389.0533302823797 563.3333302353371 441.35333173335187 579.9999973643913 439.1033316709296C596.6666644934455 436.85333160850723 611.6666649095944 391.12833033994696 619.9999984741214 378.5033299896884 " transform="rotate(60, 400, 400)"></path><path d="M190.99998619079594 419.4781607824625C198.9166530770967 411.1656605518467 213.16665347243807 381.5969097315134 228.99998724503956 379.5781596755067C244.83332101764108 377.5594096195 251.1666545266817 413.46941061576024 266.99998829928325 409.78816051363043C282.8333220718847 406.10691041150056 289.16665558092535 358.2269090831536 304.99998935352687 361.9081591852834C320.83332312612833 365.5894092874133 327.166656635169 421.1644108292446 342.9999904077705 427.4581610038537C358.833324180372 433.7519111784628 365.1666576894126 391.0494099937565 380.9999914620141 392.11816002340714C396.8333252346156 393.1869100530577 403.1666587436563 433.6569111758272 418.99999251625775 432.5881611461766C434.83332628885927 431.519411116526 441.1666597978999 385.8006598481391 456.99999357050143 386.98815988108424C472.8333273431029 388.1756599140293 479.1666608521435 437.6944112878406 494.99999462474506 438.2881613043131C510.8333283973466 438.8819113207857 517.1666619063872 390.0756599667415 532.9999956789886 389.8381599601525C548.8333294515903 389.6006599535635 555.1666629606309 439.28566133198706 570.9999967332324 437.1481612726858C586.8333305058338 435.01066121338465 601.0833309011753 391.57191000825236 608.9999977874759 379.5781596755067 " transform="rotate(57, 400, 400)"></path><path d="M201.999986114502 418.4529980394145C209.49998632257638 410.57799782093645 222.99998669711033 382.5654970437785 237.99998711325912 380.65299699071954C252.99998752940792 378.74049693766057 258.99998769586745 412.7604978814861 273.99998811201624 409.2729977847315C288.9999885281651 405.7854976879769 294.99998869462456 360.4254964295429 309.9999891107734 363.9129965262975C324.9999895269222 367.4004966230521 330.99998969338174 420.0504980837344 345.99999010953053 426.01299824915355C360.9999905256793 431.9754984145727 366.9999906921388 391.5204972922194 381.99999110828765 392.5329973203094C396.99999152443644 393.54549734839946 402.99999169089597 431.8854984120758 417.99999210704476 430.87299838398576C432.99999252319355 429.86049835589574 438.99999268965314 386.54799715426606 453.99999310580193 387.6729971854772C468.9999935219507 388.7979972166884 474.9999936884102 435.71049851819373 489.99999410455905 436.2729985337993C504.9999945207079 436.8354985494049 510.9999946871674 390.59799726662624 525.9999951033162 390.372997260384C540.9999955194651 390.1479972541417 546.9999956859245 437.21799856001667 561.9999961020733 435.19299850383663C576.9999965182221 433.16799844765654 590.499996892756 392.0154973059523 597.9999971008303 380.65299699071954 " transform="rotate(54, 400, 400)"></path><path d="M212.99998603820805 417.427827666972C220.08331956805608 409.9903274606316 232.8333199217826 383.5340767266491 246.99998698147868 381.72782667653786C261.16665404117475 379.9215766264266 266.8333208650532 412.05157751781735 280.9999879247493 408.75782742643804C295.16665498444536 405.4640773350587 300.83332180832383 362.6240761465377 314.99998886801995 365.91782623791704C329.166655927716 369.21157632929635 334.83332275159444 418.93657770882965 348.99998981129056 424.56782786505886C363.1666568709866 430.1990780212881 368.83332369486504 391.9915769612877 382.99999075456117 392.94782698781717C397.16665781425723 393.9040770143467 402.8333246381357 430.1140780189299 416.9999916978318 429.15782799240037C431.1666587575279 428.2015779658709 436.8333255814063 387.2953268309984 450.99999264110244 388.35782686047565C465.1666597007985 389.42032688995283 470.8333265246769 433.72657811915235 484.99999358437304 434.257828133891C499.16666064406917 434.78907814862964 504.8333274679476 391.1203269371164 518.9999945276437 390.90782693122094C533.1666615873398 390.6953269253255 538.8333284112182 435.15032815865186 552.9999954709143 433.2378281055929C567.1666625306103 431.3253280525339 579.9166628843368 392.45907697425764 586.9999964141849 381.72782667653786 " transform="rotate(51, 400, 400)"></path><path d="M223.9999859619141 416.402664923924C230.6666528135358 409.40266472972127 242.66665314645485 384.50266403891425 255.99998684969822 382.8026639917507C269.3333205529416 381.1026639445872 274.66665403423895 411.34266478354317 287.99998773748234 408.2426646975391C301.3333214407257 405.142664611535 306.6666549220231 364.822663492927 319.99998862526644 367.9226635789311C333.33332232850984 371.0226636649352 338.6666558098072 417.8226649633195 351.99998951305054 423.1226651103587C365.33332321629393 428.42266525739797 370.6666566975913 392.46266425975057 383.9999904008347 393.3626642847195C397.3333241040781 394.26266430968843 402.66665758537545 428.3426652551785 415.99999128861884 427.44266523020957C429.3333249918621 426.5426652052406 434.66665847315954 388.04266413712537 447.9999921764029 389.0426641648686C461.3333258796463 390.0426641926119 466.6666593609436 431.74266534950556 479.99999306418704 432.24266536337717C493.33332676743044 432.74266537724884 498.6666602487278 391.6426642370011 511.99999395197113 391.44266423145245C525.3333276552146 391.2426642259038 530.666661136512 433.0826653866815 543.9999948397553 431.28266533674366C557.3333285429986 429.4826652868058 569.3333288759177 392.9026642719576 575.9999957275394 382.8026639917507 " transform="rotate(48, 400, 400)"></path><path d="M234.99998588562016 415.37749645883014C241.2499860590155 408.81499627676504 252.49998637112708 385.4712456291335 264.99998671791775 383.87749558491765C277.4999870647084 382.28374554070183 282.49998720342467 410.6337463272231 294.99998755021534 407.7274962465943C307.499987897006 404.8212461659654 312.4999880357223 367.02124511727044 324.999988382513 369.9274951978993C337.49998872930365 372.8337452785281 342.49998886801995 416.70874649576336 354.9999892148106 421.67749663361263C367.4999895616013 426.64624677146196 372.49998970031754 392.93374583616753 384.9999900471082 393.7774958595759C397.4999903938989 394.6212458829842 402.49999053261513 426.5712467693812 414.9999908794058 425.7274967459728C427.49999122619647 424.88374672256447 432.4999913649127 388.7899957212064 444.9999917117034 389.7274957472157C457.49999205849406 390.664995773225 462.4999921972103 429.7587468578128 474.999992544001 430.2274968708175C487.4999928907917 430.69624688382214 492.49999302950795 392.16499581483987 504.9999933762987 391.977495809638C517.4999937230893 391.78999580443616 522.4999938618056 431.0149968926653 534.9999942085963 429.32749684584854C547.4999945553868 427.6399967990318 558.7499948674986 393.3462458476116 564.9999950408939 383.87749558491765 " transform="rotate(45, 400, 400)"></path><path d="M245.9999858093262 414.35233371578215C251.83331930449518 408.2273335458547 262.33331959579937 386.4398329413986 273.9999865861373 384.9523329001305C285.66665357647526 383.46483285886245 290.33332037261044 409.9248335929489 301.9999873629484 407.21233351769536C313.6666543532864 404.49983344244174 318.3333211494216 369.21983246365977 329.9999881397595 371.93233253891333C341.66665513009747 374.64483261416694 346.33332192623266 415.59483375025314 357.9999889165706 420.2323338789125C369.66665590690855 424.86983400757185 374.3333227030438 393.4048331346304 385.99998969338174 394.1923331564782C397.6666566837197 394.979833178326 402.3333234798548 424.7998340056298 413.9999904701928 424.012333983782C425.6666574605308 423.22483396193417 430.33332425666595 389.5373330273333 441.99999124700395 390.4123330516087C453.66665823734184 391.287333075884 458.3333250334771 427.77483408816596 469.999992023815 428.2123341003037C481.66665901415297 428.64983411244134 486.33332581028816 392.6873331147246 497.99999280062616 392.51233310986953C509.6666597909641 392.33733310501447 514.3333265870992 428.94733412069496 525.9999935774372 427.3723340769993C537.6666605677751 425.7973340333037 548.1666608590793 393.7898331453115 553.9999943542483 384.9523329001305 " transform="rotate(42, 400, 400)"></path><path d="M256.99998573303225 413.32716334333963C262.41665254997486 407.6396631855499 272.1666528204716 387.4084126242692 282.9999864543569 386.0271625859488C293.8333200882421 384.6459125476284 298.1666535417962 409.2159132292802 308.99998717568144 406.6971631594019C319.83332080956666 404.17841308952353 324.1666542631208 371.41841218065457 334.999987897006 373.9371622505329C345.8333215308913 376.45591232041124 350.1666549844454 414.48091337534845 360.99998861833063 418.78716349481783C371.8333222522159 423.0934136142872 376.16665570577 393.87591280369867 386.99998933965526 394.60716282398596C397.8333229735405 395.3384128442732 402.1666564270946 423.02841361248386 412.9999900609798 422.2971635921966C423.83332369486504 421.5659135719094 428.1666571484192 390.28466270406574 438.9999907823044 391.0971627266071C449.83332441618967 391.90966274914854 454.16665786974374 425.79091368912464 464.999991503629 426.1971637003953C475.8333251375143 426.603413711666 480.1666585910683 393.20966278521473 490.99999222495364 393.04716278070646C501.83332585883886 392.8846627761982 506.166659312393 426.8796637193301 516.9999929462782 425.41716367875557C527.8333265801634 423.9546636381811 537.5833268506601 394.2334128136169 542.9999936676028 386.0271625859488 " transform="rotate(39, 400, 400)"></path><path d="M267.9999856567383 412.30200060029165C272.99998579545456 407.0520004546396 281.9999860451438 388.37699993653433 291.99998632257643 387.10199990116166C301.9999866000089 385.82699986578905 305.99998671098194 408.507000495006 315.9999869884145 406.18200043050297C325.99998726584704 403.8570003659999 329.99998737682006 373.6169995270439 339.99998765425255 375.94199959154696C349.9999879316851 378.26699965605 353.9999880426581 413.36700062983823 363.99998832009067 417.34200074011767C373.9999885975232 421.3170008503971 377.9999887084962 394.34700010216153 387.9999889859287 395.02200012088826C397.9999892633613 395.69700013961494 401.9999893743343 421.2570008487325 411.99998965176684 420.5820008300058C421.9999899291994 419.9070008112791 425.9999900401724 391.03200001019263 435.9999903176049 391.7820000310001C445.99999059503745 392.53200005180753 449.99999070601046 423.8070009194778 459.999990983443 424.1820009298815C469.99999126087556 424.55700094028526 473.9999913718486 393.73200008509946 483.9999916492811 393.582000080938C493.9999919267137 393.4320000767765 497.99999203768664 424.81200094735976 507.9999923151192 423.46200090990635C517.9999925925517 422.112000872453 526.999992842241 394.67700011131683 531.9999929809572 387.10199990116166 " transform="rotate(36, 400, 400)"></path><path d="M279.0000008392334 411.2768340425464C283.58333429972333 406.464333909032 291.8333345286052 389.3455834341022 301.000001449585 388.17683340167724C310.1666683705648 387.00808336925235 313.8333351389567 407.7980839460346 323.0000020599366 405.6668338869068C332.16666898091637 403.53558382777896 335.83333574930833 375.81558305873597 345.00000267028815 377.9468331178638C354.166669591268 380.0780831769916 357.83333635965994 412.25308406963075 367.00000328063976 415.89683417072024C376.1666702016196 419.54058427180973 379.8333369700115 394.8180835859271 389.0000038909913 395.4368336030933C398.16667081197113 396.0555836202594 401.8333375803631 419.4855842702839 411.0000045013429 418.8668342531177C420.16667142232274 418.2480842359516 423.8333381907147 391.7793335016223 433.00000511169446 392.4668335206958C442.1666720326743 393.1543335397693 445.83333880106625 421.8230843351337 455.00000572204607 422.16683434467046C464.1666726430259 422.5105843542072 467.8333394114178 394.25433357028686 477.0000063323977 394.11683356647217C486.1666732533775 393.9793335626575 489.83334002176946 422.74433436069216 499.0000069427492 421.5068343263599C508.166673863729 420.2693342920276 516.4166740926108 395.12058359431944 521.0000075531008 388.17683340167724 " transform="rotate(33, 400, 400)"></path><path d="M290.00000076293946 410.2516636701039C294.16666754520304 405.87666354872715 301.66666775327747 390.3141631169728 310.00000131780456 389.25166308749556C318.33333488233166 388.1891630580184 321.6666683081425 407.08916358236587 330.0000018726696 405.1516635286133C338.33333543719675 403.21416347486075 341.6666688630076 378.01416277573077 350.0000024275347 379.9516628294833C358.3333359920618 381.8891628832359 361.66666941787264 411.13916369472605 370.0000029823998 414.45166378662555C378.3333365469269 417.7641638785251 381.66666997273774 395.28916325499546 390.00000353726483 395.851663270601C398.3333371017919 396.41416328620664 401.66667052760283 417.71416387713793 410.0000040921299 417.15166386153237C418.333337656657 416.58916384592675 421.6666710824679 392.52666317835474 430.00000464699497 393.15166319569425C438.3333382115221 393.77666321303377 441.6666716373329 419.83916393609235 450.00000520186006 420.1516639447621C458.3333387663872 420.46416395343186 461.666672192198 394.77666324077705 470.00000575672516 394.65166323730915C478.3333393212523 394.52666323384125 481.6666727470631 420.6766639593273 490.0000063115902 419.55166392811617C498.3333398761173 418.426663896905 505.8333400841917 395.56416326262485 510.00000686645524 389.25166308749556 " transform="rotate(30, 400, 400)"></path><path d="M301.00000068664554 409.22649901970726C304.75000079068275 405.2889989104682 311.5000009779497 391.2827485218893 319.00000118602406 390.3264984953598C326.5000013940985 389.3702484688303 329.5000014773283 406.38024894074306 337.00000168540265 404.63649889236575C344.5000018934771 402.89274884398844 347.5000019767068 380.21274821477147 355.00000218478124 381.9564982631488C362.50000239285566 383.700248311526 365.5000024760854 410.0252490418672 373.00000268415977 413.00649912457675C380.5000028922342 415.98774920728636 383.50000297546393 395.7602486461097 391.00000318353835 396.2664986601547C398.5000033916127 396.77274867419976 401.5000034748425 415.9427492060379 409.00000368291694 415.4364991919929C416.5000038909913 414.93024917794787 419.5000039742211 393.273998577133 427.00000418229547 393.8364985927386C434.5000043903699 394.3989986083442 437.50000447359963 417.85524925909687 445.00000468167406 418.13649926689965C452.5000048897485 418.4177492747025 455.5000049729782 395.2989986333131 463.00000518105264 395.186498630192C470.50000538912707 395.07399862707086 473.5000054723568 418.60899928000833 481.0000056804312 417.5964992519183C488.5000058885056 416.58399922382824 495.25000607577255 396.00774865297615 499.0000061798097 390.3264984953598 " transform="rotate(27, 400, 400)"></path><path d="M311.999992980957 408.2013305546134C315.3333264067679 404.701330457512 321.3333265732274 392.2513301121085 327.9999934248491 391.4013300885267C334.6666602764708 390.551330064945 337.3333270171195 405.671330484423 343.99999386874117 404.1213304414209C350.66666072036287 402.57133039841887 353.33332746101155 382.4113298391149 359.99999431263325 383.9613298821169C366.66666116425495 385.51132992511896 369.3333279049036 408.9113305743111 375.99999475652527 411.56133064783074C382.66666160814697 414.21133072135035 385.33332834879565 396.23133022252665 391.99999520041735 396.6813302350111C398.66666205203904 397.13133024749555 401.3333287926877 414.17133072024063 407.9999956443094 413.7213307077561C414.66666249593106 413.2713306952717 417.33332923657974 394.02133016121405 423.99999608820144 394.52133017508567C430.66666293982314 395.02133018895734 433.3333296804718 415.8713307674041 439.9999965320935 416.12133077434C446.6666633837152 416.3713307812758 449.3333301243639 395.8213302111519 455.9999969759856 395.7213302083776C462.6666638276073 395.6213302056033 465.333330568256 416.5413307859921 471.9999974198777 415.6413307610232C478.6666642714993 414.7413307360543 484.66666443795884 396.4513302286301 487.9999978637697 391.4013300885267 " transform="rotate(24, 400, 400)"></path><path d="M322.9999929046631 407.1761678115654C325.9166596522476 404.1136677266017 331.1666597978997 393.21991742437365 336.99999329306866 392.47616740373957C342.8333267882376 391.73241738310554 345.1666601863052 404.9624177501488 350.99999368147417 403.606167712522C356.8333271766432 402.2499176748952 359.1666605747108 384.6099171855042 364.9999940698798 385.966167223131C370.83332756504876 387.3224172607578 373.1666609631163 407.7974178288009 378.9999944582853 410.1161678931306C384.8333279534543 412.43491795746024 387.1666613515219 396.7024175209895 392.99999484669087 397.0961675319134C398.83332834185984 397.4899175428373 401.1666617399274 412.3999179564892 406.99999523509643 412.0061679455653C412.8333287302654 411.6124179346414 415.166662128333 394.768667467341 420.99999562350195 395.20616747947867C426.8333291186709 395.6436674916163 429.16666251673854 413.8874179977573 434.9999960119075 414.10616800382616C440.8333295070765 414.324918009895 443.1666629051441 396.3436675110366 448.9999964003131 396.25616750860905C454.83332989548205 396.1686675061815 457.1666632935496 414.47366801402177 462.9999967887186 413.686167992174C468.83333028388756 412.8986679703262 474.08333042953967 396.89491752633006 476.99999717712416 392.47616740373957 " transform="rotate(21, 400, 400)"></path><path d="M333.99999282836916 406.1509993464715C336.4999928977273 403.5259992736455 340.9999930225719 394.1884990145928 345.9999931612882 393.5509989969065C350.99999330000446 392.9134989792202 352.999993355491 404.25349929382867 357.9999934942073 403.09099926157717C362.9999936329235 401.9284992293256 364.99999368841003 386.8084988098476 369.9999938271263 387.97099884209916C374.9999939658426 389.1334988743507 376.99999402132903 406.6834993612448 381.99999416004533 408.6709994163845C386.99999429876164 410.65849947152424 388.9999943542481 397.1734990974065 393.99999449296433 397.5109991067698C398.99999463168064 397.84849911613315 400.99999468716715 410.62849947069196 405.9999948258834 410.29099946132857C410.9999949645997 409.95349945196523 412.9999950200862 395.515999051422 417.99999515880245 395.8909990618257C422.9999952975187 396.2659990722295 424.99999535300526 411.9034995060646 429.9999954917215 412.09099951126643C434.99999563043775 412.2784995164683 436.9999956859243 396.8659990888754 441.99999582464056 396.79099908679467C446.9999959633568 396.7159990847139 448.9999960188433 412.4059995200056 453.9999961575596 411.73099950127886C458.99999629627587 411.0559994825522 463.4999964211205 397.3384991019841 465.9999964904786 393.5509989969065 " transform="rotate(18, 400, 400)"></path><path d="M344.99999656677244 405.12583278872626C347.08332995790425 402.9383327280379 350.83333006194147 395.1570825121607 354.99999684420504 394.6258324974221C359.16666362646856 394.0945824826835 360.833330339374 403.5445827448572 364.99999712163753 402.575832717981C369.1666639039011 401.60708269110467 370.8333306168065 389.0070823415397 374.9999973990701 389.975832368416C379.16666418133366 390.94458239529223 380.83333089423905 405.5695828010373 384.99999767650263 407.2258328469871C389.16666445876615 408.88208289293686 390.8333311716716 397.644582581172 394.9999979539351 397.92583258897486C399.1666647361987 398.20708259677764 400.83333144910415 408.8570828922433 404.9999982313677 408.5758328844405C409.16666501363125 408.2945828766377 410.8333317265367 396.2633325428517 414.9999985088002 396.57583255152144C419.1666652910638 396.8883325601912 420.8333320039692 409.91958292172046 424.99999878623277 410.07583292605534C429.16666556849634 410.2320829303903 430.83333228140174 397.3883325740628 434.9999990636653 397.32583257232886C439.1666658459289 397.2633325705949 440.8333325588343 410.338332933338 444.9999993410978 409.7758329177324C449.1666661233614 409.2133329021268 452.9166662273986 397.78208258498677 454.99999961853035 394.6258324974221 " transform="rotate(15, 400, 400)"></path><path d="M355.9999964904785 404.100666230981C357.66666320338396 402.3506661824303 360.6666632866137 396.12566600972855 363.99999671242455 395.7006659979377C367.3333301382354 395.2756659861468 368.66666350855974 402.8356661958858 371.9999969343706 402.0606661743848C375.33333036018144 401.2856661528838 376.6666637305058 391.20566587323174 379.9999971563166 391.9806658947328C383.3333305821275 392.7556659162338 384.6666639524518 404.4556662408299 387.9999973782626 405.78066627758966C391.3333308040735 407.1056663143495 392.66666417439785 398.1156660649376 395.99999760020864 398.34066607117984C399.33333102601955 398.5656660774221 400.6666643963439 407.0856663137946 403.9999978221547 406.8606663075524C407.33333124796553 406.63566630131015 408.6666646182899 397.01066603428137 411.9999980441007 397.2606660412172C415.33333146991157 397.510666048153 416.6666648402359 407.9356663373764 419.99999826604676 408.0606663408443C423.3333316918576 408.1856663443122 424.66666506218195 397.9106660592503 427.9999984879928 397.8606660578631C431.33333191380365 397.81066605647595 432.666665284128 408.2706663466704 435.99999870993884 407.82066633418594C439.33333213574963 407.37066632170144 442.3333322189794 398.2256660679894 443.9999989318849 395.7006659979377 " transform="rotate(12, 400, 400)"></path><path d="M366.9999964141846 403.0755015805844C368.2499964488636 401.7630015441714 370.499996511286 397.09425141464504 372.9999965806441 396.7755014058019C375.49999665000223 396.45675139695874 376.49999667774546 402.12675155426297 378.99999674710364 401.5455015381372C381.49999681646176 400.96425152201147 382.49999684420504 393.40425131227244 384.9999969135631 393.9855013283982C387.4999969829213 394.566751344524 388.4999970106645 403.34175158797103 390.9999970800227 404.3355016155409C393.4999971493808 405.32925164311075 394.49999717712404 398.58675145605184 396.99999724648217 398.7555014607335C399.49999731584035 398.9242514654152 400.4999973435836 405.3142516426946 402.9999974129417 405.14550163801295C405.4999974822998 404.9767516333313 406.4999975100431 397.75800143305963 408.9999975794012 397.9455014382615C411.49999764875935 398.13300144346334 412.49999767650263 405.9517516603809 414.99999774586075 406.04550166298185C417.4999978152189 406.1392516655828 418.49999784296216 398.43300145178637 420.9999979123203 398.395501450746C423.4999979816784 398.35800144970557 424.4999980094217 406.20300166735143 426.9999980787798 405.8655016579881C429.49999814813793 405.5280016486247 431.74999821056025 398.6692514583407 432.99999824523934 396.7755014058019 " transform="rotate(9, 400, 400)"></path><path d="M378.0000001525879 402.0503331154905C378.8333335090406 401.1753330912152 380.3333335506555 398.0628330048643 382.0000002635609 397.85033299896884C383.66666697646633 397.6378329930734 384.3333336616285 401.4178330979429 386.0000003745339 401.0303330871924C387.66666708743935 400.6428330764419 388.3333337726015 395.60283293661587 390.0000004855069 395.99033294736637C391.66666719841237 396.37783295811687 392.33333388357454 402.2278331204149 394.00000059647994 402.89033313879486C395.6666673093854 403.55283315717475 396.33333399454756 399.0578330324688 398.00000070745295 399.1703330355899C399.6666674203584 399.28283303871103 400.3333341055206 403.5428331568973 402.000000818426 403.4303331537762C403.6666675313314 403.3178331506551 404.33333421649354 398.5053330171407 406.000000929399 398.6303330206086C407.66666764230445 398.7553330240765 408.33333432746656 403.9678331686882 410.000001040372 404.0303331704221C411.66666775327747 404.09283317215613 412.3333344384396 398.95533302962514 414.00000115134503 398.93033302893156C415.6666678642505 398.905333028238 416.3333345494126 404.1353331733352 418.00000126231805 403.910333167093C419.66666797522345 403.68533316085075 421.16666801683834 399.1128330339947 422.00000137329107 397.85033299896884 " transform="rotate(6, 400, 400)"></path><path d="M389.00000007629393 401.02516655774525C389.4166667545203 400.5876665456076 390.1666667753277 399.03141650243214 391.00000013178044 398.9251664994844C391.83333348823317 398.8189164965367 392.1666668308143 400.70891654897144 393.00000018726695 400.5151665435962C393.8333335437197 400.32141653822094 394.16666688630073 397.80141646830793 395.00000024275346 397.9951664736832C395.8333335992062 398.18891647905843 396.1666669417873 401.1139165602075 397.00000029823997 401.44516656939743C397.8333336546927 401.7764165785874 398.16666699727375 399.5289165162344 399.0000003537265 399.58516651779496C399.8333337101792 399.6414165193555 400.16666705276026 401.7714165784487 401.000000409213 401.7151665768881C401.8333337656657 401.65891657532757 402.16666710824677 399.2526665085703 403.0000004646995 399.31516651030427C403.8333338211522 399.3776665120382 404.1666671637333 401.9839165843441 405.000000520186 402.0151665852111C405.83333387663873 402.04641658607807 406.1666672192198 399.47766651481254 407.0000005756725 399.46516651446575C407.83333393212524 399.45266651411896 408.1666672747063 402.0676665866676 409.000000631159 401.9551665835465C409.8333339876117 401.8426665804254 410.5833340084192 399.55641651699733 411.00000068664554 398.9251664994844 " transform="rotate(3, 400, 400)"></path></g></svg>